<svg xmlns="http://www.w3.org/2000/svg" viewBox="0 0 256 266" width="200" height="207.81">
  <rect width="256" height="256" rx="40" fill="#cc2020" style="fill:rgb(204, 32, 32);stroke:none;color:rgb(251, 251, 254);stroke-width:1px;stroke-linecap:butt;stroke-linejoin:miter;opacity:1;font-family:&quot;Anthropic Sans&quot;, -apple-system, BlinkMacSystemFont, &quot;Segoe UI&quot;, sans-serif;font-size:16px;font-weight:400;text-anchor:start;dominant-baseline:auto"/>
  <polyline fill="none" stroke="white" stroke-width="10" stroke-linecap="round" stroke-linejoin="round" points="30.0,189.7 30.7,188.7 31.3,187.7 32.0,186.7 32.6,185.8 33.3,184.8 33.9,183.8 34.6,182.8 35.2,181.8 35.9,180.9 36.6,180.0 37.2,179.1 37.9,178.2 38.5,177.4 39.2,176.6 39.8,175.8 40.5,175.1 41.1,174.4 41.8,173.8 42.5,173.3 43.1,172.8 43.8,172.3 44.4,171.9 45.1,171.6 45.7,171.4 46.4,171.2 47.0,171.1 47.7,171.1 48.4,171.1 49.0,171.2 49.7,171.4 50.3,171.7 51.0,172.0 51.6,172.4 52.3,172.9 52.9,173.5 53.6,174.2 54.3,174.9 54.9,175.7 55.6,176.6 56.2,177.5 56.9,178.5 57.5,179.5 58.2,180.7 58.8,181.9 59.5,183.1 60.2,184.4 60.8,185.7 61.5,187.1 62.1,188.5 62.8,189.9 63.4,191.4 64.1,192.9 64.7,194.4 65.4,196.0 66.1,197.5 66.7,199.0 67.4,200.6 68.0,202.1 68.7,203.6 69.3,205.1 70.0,206.5 70.6,208.0 71.3,209.4 72.0,210.7 72.6,212.0 73.3,213.2 73.9,214.4 74.6,215.4 75.2,216.5 75.9,217.4 76.5,218.2 77.2,219.0 77.9,219.6 78.5,220.2 79.2,220.6 79.8,220.9 80.5,221.2 81.1,221.2 81.8,221.2 82.4,221.0 83.1,220.7 83.8,220.3 84.4,219.8 85.1,219.1 85.7,218.2 86.4,217.2 87.0,216.1 87.7,214.8 88.3,213.4 89.0,211.9 89.7,210.2 90.3,208.3 91.0,206.3 91.6,204.2 92.3,202.0 92.9,199.6 93.6,197.0 94.2,194.4 94.9,191.6 95.6,188.7 96.2,185.7 96.9,182.6 97.5,179.4 98.2,176.0 98.8,172.6 99.5,169.1 100.1,165.5 100.8,161.9 101.5,158.1 102.1,154.4 102.8,150.5 103.4,146.6 104.1,142.7 104.7,138.7 105.4,134.8 106.0,130.8 106.7,126.8 107.4,122.8 108.0,118.8 108.7,114.9 109.3,111.0 110.0,107.1 110.6,103.2 111.3,99.5 111.9,95.7 112.6,92.1 113.3,88.5 113.9,85.1 114.6,81.7 115.2,78.4 115.9,75.3 116.5,72.2 117.2,69.3 117.8,66.5 118.5,63.9 119.2,61.4 119.8,59.1 120.5,56.9 121.1,54.9 121.8,53.0 122.4,51.4 123.1,49.9 123.7,48.5 124.4,47.4 125.1,46.5 125.7,45.7 126.4,45.1 127.0,44.7 127.7,44.5 128.3,44.5 129.0,44.7 129.6,45.1 130.3,45.7 130.9,46.5 131.6,47.4 132.3,48.5 132.9,49.9 133.6,51.4 134.2,53.0 134.9,54.9 135.5,56.9 136.2,59.1 136.8,61.4 137.5,63.9 138.2,66.5 138.8,69.3 139.5,72.2 140.1,75.3 140.8,78.4 141.4,81.7 142.1,85.1 142.7,88.5 143.4,92.1 144.1,95.7 144.7,99.5 145.4,103.2 146.0,107.1 146.7,111.0 147.3,114.9 148.0,118.8 148.6,122.8 149.3,126.8 150.0,130.8 150.6,134.8 151.3,138.7 151.9,142.7 152.6,146.6 153.2,150.5 153.9,154.4 154.5,158.1 155.2,161.9 155.9,165.5 156.5,169.1 157.2,172.6 157.8,176.0 158.5,179.4 159.1,182.6 159.8,185.7 160.4,188.7 161.1,191.6 161.8,194.4 162.4,197.0 163.1,199.6 163.7,202.0 164.4,204.2 165.0,206.3 165.7,208.3 166.3,210.2 167.0,211.9 167.7,213.4 168.3,214.8 169.0,216.1 169.6,217.2 170.3,218.2 170.9,219.1 171.6,219.8 172.2,220.3 172.9,220.7 173.6,221.0 174.2,221.2 174.9,221.2 175.5,221.2 176.2,220.9 176.8,220.6 177.5,220.2 178.1,219.6 178.8,219.0 179.5,218.2 180.1,217.4 180.8,216.5 181.4,215.4 182.1,214.4 182.7,213.2 183.4,212.0 184.0,210.7 184.7,209.4 185.4,208.0 186.0,206.5 186.7,205.1 187.3,203.6 188.0,202.1 188.6,200.6 189.3,199.0 189.9,197.5 190.6,196.0 191.3,194.4 191.9,192.9 192.6,191.4 193.2,189.9 193.9,188.5 194.5,187.1 195.2,185.7 195.8,184.4 196.5,183.1 197.2,181.9 197.8,180.7 198.5,179.5 199.1,178.5 199.8,177.5 200.4,176.6 201.1,175.7 201.7,174.9 202.4,174.2 203.1,173.5 203.7,172.9 204.4,172.4 205.0,172.0 205.7,171.7 206.3,171.4 207.0,171.2 207.6,171.1 208.3,171.1 209.0,171.1 209.6,171.2 210.3,171.4 210.9,171.6 211.6,171.9 212.2,172.3 212.9,172.8 213.5,173.3 214.2,173.8 214.9,174.4 215.5,175.1 216.2,175.8 216.8,176.6 217.5,177.4 218.1,178.2 218.8,179.1 219.4,180.0 220.1,180.9 220.8,181.8 221.4,182.8 222.1,183.8 222.7,184.8 223.4,185.8 224.0,186.7 224.7,187.7 225.3,188.7 226.0,189.7" style="fill:none;stroke:rgb(255, 255, 255);color:rgb(251, 251, 254);stroke-width:10px;stroke-linecap:round;stroke-linejoin:round;opacity:1;font-family:&quot;Anthropic Sans&quot;, -apple-system, BlinkMacSystemFont, &quot;Segoe UI&quot;, sans-serif;font-size:16px;font-weight:400;text-anchor:start;dominant-baseline:auto"/>
</svg>